<svg height="341.333" version="1" viewBox="0 0 256 256" width="341.333" xmlns="http://www.w3.org/2000/svg"><path fill="#635d57" d="M204.8 9c-3.6 1.1-50.4 46.9-118.2 115.6C36.4 175.4 33 179.1 33 182.4c0 4.4 2.2 6.6 6.6 6.6 3.3 0 8.1-4.6 81.8-78.8 91.2-91.8 94.8-95.5 94.4-99.1-.3-2.3-.8-2.6-4.3-2.8-2.2-.1-5.2.2-6.7.7zM226.7 15.1C222 17.6 171.2 67 102.4 136.2c-49.5 49.6-52.2 52.5-53.3 57.2-1.5 6.2-.1 11 3.9 13.1 3.5 1.8 8.5 1.9 12.2.2 2.9-1.3 157.4-156.6 167.7-168.6 10.6-12.3 11.9-17.9 5.5-23-3.3-2.6-6.8-2.6-11.7 0zM154.9 125.7c-77 76.8-87 87.2-87.5 90.4-.5 3-.2 4.1 1.6 5.9 5.3 5.3 2.4 7.9 87.9-78.2 43.3-43.6 81.2-82.1 84.3-85.5 6-6.6 7.9-11.4 6.2-16.2-2.4-6.7-.2-8.7-92.5 83.6zM17.2 213.7c-3.7 8.9-8.4 24.8-8.5 29.3l-.2 4.5 5.5-.2c5.7-.2 20.4-4.1 27.8-7.3 4.2-1.9 4.3-2.1 3.7-5.2-1.9-8.6-10.2-18.6-19.3-23.2-2.8-1.4-5.5-2.6-6-2.6s-1.9 2.1-3 4.7z"/></svg>